<mxfile host="app.diagrams.net" modified="2023-07-25T12:11:59.371Z" agent="Mozilla/5.0 (Windows NT 10.0; Win64; x64) AppleWebKit/537.36 (KHTML, like Gecko) Chrome/114.0.0.0 Safari/537.36" etag="nnC6m94hevaiuUGQarwi" version="21.6.5" type="github" pages="3">
  <diagram name="第 1 页" id="qwh9VL5wtJB662f1jnNc">
    <mxGraphModel dx="1388" dy="935" grid="1" gridSize="10" guides="1" tooltips="1" connect="1" arrows="1" fold="1" page="0" pageScale="1" pageWidth="827" pageHeight="1169" math="0" shadow="0">
      <root>
        <mxCell id="0" />
        <mxCell id="1" parent="0" />
        <mxCell id="zV_4KK6b8gMd1ieqpWD0-7" value="" style="endArrow=none;html=1;rounded=0;" parent="1" edge="1">
          <mxGeometry width="50" height="50" relative="1" as="geometry">
            <mxPoint as="sourcePoint" />
            <mxPoint x="200" as="targetPoint" />
          </mxGeometry>
        </mxCell>
        <mxCell id="zV_4KK6b8gMd1ieqpWD0-11" value="" style="shape=partialRectangle;whiteSpace=wrap;html=1;bottom=0;right=0;fillColor=none;rotation=-180;" parent="1" vertex="1">
          <mxGeometry x="-10" width="10" height="10" as="geometry" />
        </mxCell>
        <mxCell id="zV_4KK6b8gMd1ieqpWD0-12" value="" style="shape=partialRectangle;whiteSpace=wrap;html=1;bottom=0;right=0;fillColor=none;rotation=-180;" parent="1" vertex="1">
          <mxGeometry x="-20" y="10" width="10" height="10" as="geometry" />
        </mxCell>
        <mxCell id="zV_4KK6b8gMd1ieqpWD0-13" value="" style="shape=partialRectangle;whiteSpace=wrap;html=1;bottom=0;right=0;fillColor=none;rotation=-180;" parent="1" vertex="1">
          <mxGeometry x="-30" y="20" width="10" height="10" as="geometry" />
        </mxCell>
        <mxCell id="zV_4KK6b8gMd1ieqpWD0-14" value="" style="shape=partialRectangle;whiteSpace=wrap;html=1;bottom=0;right=0;fillColor=none;rotation=-180;" parent="1" vertex="1">
          <mxGeometry x="-40" y="30" width="10" height="10" as="geometry" />
        </mxCell>
        <mxCell id="zV_4KK6b8gMd1ieqpWD0-15" value="" style="shape=partialRectangle;whiteSpace=wrap;html=1;bottom=0;right=0;fillColor=none;rotation=-180;" parent="1" vertex="1">
          <mxGeometry x="-50" y="40" width="10" height="10" as="geometry" />
        </mxCell>
        <mxCell id="zV_4KK6b8gMd1ieqpWD0-16" value="" style="shape=partialRectangle;whiteSpace=wrap;html=1;bottom=0;right=0;fillColor=none;rotation=-180;" parent="1" vertex="1">
          <mxGeometry x="-60" y="50" width="10" height="10" as="geometry" />
        </mxCell>
        <mxCell id="zV_4KK6b8gMd1ieqpWD0-17" value="" style="shape=partialRectangle;whiteSpace=wrap;html=1;bottom=0;right=0;fillColor=none;rotation=-180;" parent="1" vertex="1">
          <mxGeometry x="-70" y="60" width="10" height="10" as="geometry" />
        </mxCell>
        <mxCell id="zV_4KK6b8gMd1ieqpWD0-19" value="" style="shape=partialRectangle;whiteSpace=wrap;html=1;bottom=0;right=0;fillColor=none;rotation=-180;" parent="1" vertex="1">
          <mxGeometry x="-80" y="70" width="10" height="10" as="geometry" />
        </mxCell>
        <mxCell id="zV_4KK6b8gMd1ieqpWD0-21" value="" style="endArrow=none;html=1;rounded=0;exitX=1;exitY=0;exitDx=0;exitDy=0;" parent="1" source="zV_4KK6b8gMd1ieqpWD0-19" edge="1">
          <mxGeometry width="50" height="50" relative="1" as="geometry">
            <mxPoint x="-90" y="110" as="sourcePoint" />
            <mxPoint x="-80" y="180" as="targetPoint" />
          </mxGeometry>
        </mxCell>
        <mxCell id="zV_4KK6b8gMd1ieqpWD0-22" value="" style="shape=partialRectangle;whiteSpace=wrap;html=1;bottom=0;right=0;fillColor=none;rotation=-90;" parent="1" vertex="1">
          <mxGeometry x="200" width="10" height="10" as="geometry" />
        </mxCell>
        <mxCell id="zV_4KK6b8gMd1ieqpWD0-23" value="" style="shape=partialRectangle;whiteSpace=wrap;html=1;bottom=0;right=0;fillColor=none;rotation=-90;" parent="1" vertex="1">
          <mxGeometry x="210" y="10" width="10" height="10" as="geometry" />
        </mxCell>
        <mxCell id="zV_4KK6b8gMd1ieqpWD0-24" value="" style="shape=partialRectangle;whiteSpace=wrap;html=1;bottom=0;right=0;fillColor=none;rotation=-90;" parent="1" vertex="1">
          <mxGeometry x="220" y="20" width="10" height="10" as="geometry" />
        </mxCell>
        <mxCell id="zV_4KK6b8gMd1ieqpWD0-25" value="" style="shape=partialRectangle;whiteSpace=wrap;html=1;bottom=0;right=0;fillColor=none;rotation=-90;" parent="1" vertex="1">
          <mxGeometry x="230" y="30" width="10" height="10" as="geometry" />
        </mxCell>
        <mxCell id="zV_4KK6b8gMd1ieqpWD0-26" value="" style="shape=partialRectangle;whiteSpace=wrap;html=1;bottom=0;right=0;fillColor=none;rotation=-90;" parent="1" vertex="1">
          <mxGeometry x="240" y="40" width="10" height="10" as="geometry" />
        </mxCell>
        <mxCell id="zV_4KK6b8gMd1ieqpWD0-27" value="" style="shape=partialRectangle;whiteSpace=wrap;html=1;bottom=0;right=0;fillColor=none;rotation=-90;" parent="1" vertex="1">
          <mxGeometry x="250" y="50" width="10" height="10" as="geometry" />
        </mxCell>
        <mxCell id="zV_4KK6b8gMd1ieqpWD0-28" value="" style="endArrow=none;html=1;rounded=0;exitX=0;exitY=1;exitDx=0;exitDy=0;" parent="1" source="zV_4KK6b8gMd1ieqpWD0-27" edge="1">
          <mxGeometry width="50" height="50" relative="1" as="geometry">
            <mxPoint x="270" y="60" as="sourcePoint" />
            <mxPoint x="260" y="200" as="targetPoint" />
          </mxGeometry>
        </mxCell>
        <mxCell id="zV_4KK6b8gMd1ieqpWD0-30" value="" style="shape=partialRectangle;whiteSpace=wrap;html=1;bottom=0;right=0;fillColor=none;rotation=90;" parent="1" vertex="1">
          <mxGeometry x="-80" y="180" width="10" height="10" as="geometry" />
        </mxCell>
        <mxCell id="zV_4KK6b8gMd1ieqpWD0-31" value="" style="shape=partialRectangle;whiteSpace=wrap;html=1;bottom=0;right=0;fillColor=none;rotation=90;" parent="1" vertex="1">
          <mxGeometry x="-70" y="190" width="10" height="10" as="geometry" />
        </mxCell>
        <mxCell id="zV_4KK6b8gMd1ieqpWD0-32" value="" style="shape=partialRectangle;whiteSpace=wrap;html=1;bottom=0;right=0;fillColor=none;rotation=90;" parent="1" vertex="1">
          <mxGeometry x="-60" y="200" width="10" height="10" as="geometry" />
        </mxCell>
        <mxCell id="zV_4KK6b8gMd1ieqpWD0-33" value="" style="shape=partialRectangle;whiteSpace=wrap;html=1;bottom=0;right=0;fillColor=none;rotation=90;" parent="1" vertex="1">
          <mxGeometry x="-50" y="210" width="10" height="10" as="geometry" />
        </mxCell>
        <mxCell id="zV_4KK6b8gMd1ieqpWD0-34" value="" style="shape=partialRectangle;whiteSpace=wrap;html=1;bottom=0;right=0;fillColor=none;rotation=90;" parent="1" vertex="1">
          <mxGeometry x="-40" y="220" width="10" height="10" as="geometry" />
        </mxCell>
        <mxCell id="zV_4KK6b8gMd1ieqpWD0-35" value="" style="shape=partialRectangle;whiteSpace=wrap;html=1;bottom=0;right=0;fillColor=none;rotation=90;" parent="1" vertex="1">
          <mxGeometry x="-30" y="230" width="10" height="10" as="geometry" />
        </mxCell>
        <mxCell id="zV_4KK6b8gMd1ieqpWD0-36" value="" style="shape=partialRectangle;whiteSpace=wrap;html=1;bottom=0;right=0;fillColor=none;rotation=90;" parent="1" vertex="1">
          <mxGeometry x="-20" y="240" width="10" height="10" as="geometry" />
        </mxCell>
        <mxCell id="zV_4KK6b8gMd1ieqpWD0-37" value="" style="shape=partialRectangle;whiteSpace=wrap;html=1;bottom=0;right=0;fillColor=none;rotation=90;" parent="1" vertex="1">
          <mxGeometry x="-10" y="250" width="10" height="10" as="geometry" />
        </mxCell>
        <mxCell id="zV_4KK6b8gMd1ieqpWD0-39" value="" style="endArrow=none;html=1;rounded=0;" parent="1" edge="1">
          <mxGeometry width="50" height="50" relative="1" as="geometry">
            <mxPoint y="260" as="sourcePoint" />
            <mxPoint x="200" y="260" as="targetPoint" />
          </mxGeometry>
        </mxCell>
        <mxCell id="zV_4KK6b8gMd1ieqpWD0-40" value="" style="shape=partialRectangle;whiteSpace=wrap;html=1;bottom=0;right=0;fillColor=none;rotation=0;" parent="1" vertex="1">
          <mxGeometry x="250" y="200" width="10" height="10" as="geometry" />
        </mxCell>
        <mxCell id="zV_4KK6b8gMd1ieqpWD0-41" value="" style="shape=partialRectangle;whiteSpace=wrap;html=1;bottom=0;right=0;fillColor=none;rotation=0;" parent="1" vertex="1">
          <mxGeometry x="240" y="210" width="10" height="10" as="geometry" />
        </mxCell>
        <mxCell id="zV_4KK6b8gMd1ieqpWD0-42" value="" style="shape=partialRectangle;whiteSpace=wrap;html=1;bottom=0;right=0;fillColor=none;rotation=0;" parent="1" vertex="1">
          <mxGeometry x="230" y="220" width="10" height="10" as="geometry" />
        </mxCell>
        <mxCell id="zV_4KK6b8gMd1ieqpWD0-43" value="" style="shape=partialRectangle;whiteSpace=wrap;html=1;bottom=0;right=0;fillColor=none;rotation=0;" parent="1" vertex="1">
          <mxGeometry x="220" y="230" width="10" height="10" as="geometry" />
        </mxCell>
        <mxCell id="zV_4KK6b8gMd1ieqpWD0-44" value="" style="shape=partialRectangle;whiteSpace=wrap;html=1;bottom=0;right=0;fillColor=none;rotation=0;" parent="1" vertex="1">
          <mxGeometry x="210" y="240" width="10" height="10" as="geometry" />
        </mxCell>
        <mxCell id="zV_4KK6b8gMd1ieqpWD0-45" value="" style="shape=partialRectangle;whiteSpace=wrap;html=1;bottom=0;right=0;fillColor=none;rotation=0;" parent="1" vertex="1">
          <mxGeometry x="200" y="250" width="10" height="10" as="geometry" />
        </mxCell>
        <mxCell id="zV_4KK6b8gMd1ieqpWD0-47" value="" style="rounded=1;whiteSpace=wrap;html=1;" parent="1" vertex="1">
          <mxGeometry x="60" y="260" width="10" height="20" as="geometry" />
        </mxCell>
        <mxCell id="zV_4KK6b8gMd1ieqpWD0-48" value="20" style="text;strokeColor=none;align=center;fillColor=none;html=1;verticalAlign=middle;whiteSpace=wrap;rounded=0;" parent="1" vertex="1">
          <mxGeometry x="60" y="-30" width="60" height="30" as="geometry" />
        </mxCell>
        <mxCell id="zV_4KK6b8gMd1ieqpWD0-49" value="9" style="text;html=1;align=center;verticalAlign=middle;resizable=0;points=[];autosize=1;strokeColor=none;fillColor=none;" parent="1" vertex="1">
          <mxGeometry x="-80" y="20" width="30" height="30" as="geometry" />
        </mxCell>
        <mxCell id="zV_4KK6b8gMd1ieqpWD0-50" value="7" style="text;html=1;align=center;verticalAlign=middle;resizable=0;points=[];autosize=1;strokeColor=none;fillColor=none;" parent="1" vertex="1">
          <mxGeometry x="230" y="10" width="30" height="30" as="geometry" />
        </mxCell>
        <mxCell id="zV_4KK6b8gMd1ieqpWD0-51" value="进攻船" style="text;html=1;align=center;verticalAlign=middle;resizable=0;points=[];autosize=1;strokeColor=none;fillColor=none;" parent="1" vertex="1">
          <mxGeometry x="35" y="280" width="60" height="30" as="geometry" />
        </mxCell>
        <mxCell id="zV_4KK6b8gMd1ieqpWD0-53" value="主楼" style="rounded=1;whiteSpace=wrap;html=1;" parent="1" vertex="1">
          <mxGeometry x="-40" y="-130" width="60" height="60" as="geometry" />
        </mxCell>
      </root>
    </mxGraphModel>
  </diagram>
  <diagram name="规则引擎" id="GZoB0VWZai6WKsv9cFgK">
    <mxGraphModel dx="1368" dy="854" grid="1" gridSize="10" guides="1" tooltips="1" connect="1" arrows="1" fold="1" page="1" pageScale="1" pageWidth="1920" pageHeight="1200" math="0" shadow="0">
      <root>
        <mxCell id="0" />
        <mxCell id="1" parent="0" />
        <mxCell id="nkRAWRB7QTpRWoVHKGXE-1" value="API access" style="rounded=0;whiteSpace=wrap;html=1;" parent="1" vertex="1">
          <mxGeometry x="170" y="65" width="120" height="60" as="geometry" />
        </mxCell>
        <mxCell id="nkRAWRB7QTpRWoVHKGXE-2" value="" style="endArrow=classic;html=1;rounded=0;exitX=1;exitY=0.5;exitDx=0;exitDy=0;entryX=0;entryY=0.5;entryDx=0;entryDy=0;" parent="1" source="nkRAWRB7QTpRWoVHKGXE-1" target="nkRAWRB7QTpRWoVHKGXE-4" edge="1">
          <mxGeometry width="50" height="50" relative="1" as="geometry">
            <mxPoint x="680" y="285" as="sourcePoint" />
            <mxPoint x="430" y="155" as="targetPoint" />
          </mxGeometry>
        </mxCell>
        <mxCell id="nkRAWRB7QTpRWoVHKGXE-9" value="" style="edgeStyle=orthogonalEdgeStyle;rounded=0;orthogonalLoop=1;jettySize=auto;html=1;" parent="1" source="nkRAWRB7QTpRWoVHKGXE-4" target="nkRAWRB7QTpRWoVHKGXE-8" edge="1">
          <mxGeometry relative="1" as="geometry" />
        </mxCell>
        <mxCell id="nkRAWRB7QTpRWoVHKGXE-4" value="网关" style="ellipse;whiteSpace=wrap;html=1;" parent="1" vertex="1">
          <mxGeometry x="390" y="42.5" width="110" height="105" as="geometry" />
        </mxCell>
        <mxCell id="nkRAWRB7QTpRWoVHKGXE-11" value="" style="edgeStyle=orthogonalEdgeStyle;rounded=0;orthogonalLoop=1;jettySize=auto;html=1;" parent="1" source="nkRAWRB7QTpRWoVHKGXE-8" target="nkRAWRB7QTpRWoVHKGXE-10" edge="1">
          <mxGeometry relative="1" as="geometry" />
        </mxCell>
        <mxCell id="nkRAWRB7QTpRWoVHKGXE-8" value="是否启用api权限&lt;br&gt;跳过ruleengine类型的服务" style="rhombus;whiteSpace=wrap;html=1;" parent="1" vertex="1">
          <mxGeometry x="607.5" y="30" width="185" height="130" as="geometry" />
        </mxCell>
        <mxCell id="Ies4CJbf-FAV-6-cfxqr-3" value="" style="edgeStyle=orthogonalEdgeStyle;rounded=0;orthogonalLoop=1;jettySize=auto;html=1;" parent="1" source="nkRAWRB7QTpRWoVHKGXE-10" target="Ies4CJbf-FAV-6-cfxqr-2" edge="1">
          <mxGeometry relative="1" as="geometry" />
        </mxCell>
        <mxCell id="nkRAWRB7QTpRWoVHKGXE-10" value="执行 permission&lt;br&gt;执行 前置condition&lt;br&gt;" style="whiteSpace=wrap;html=1;" parent="1" vertex="1">
          <mxGeometry x="602.5" y="235" width="195" height="70" as="geometry" />
        </mxCell>
        <mxCell id="Ies4CJbf-FAV-6-cfxqr-5" value="" style="edgeStyle=orthogonalEdgeStyle;rounded=0;orthogonalLoop=1;jettySize=auto;html=1;entryX=0.5;entryY=0;entryDx=0;entryDy=0;" parent="1" source="Ies4CJbf-FAV-6-cfxqr-2" target="Ies4CJbf-FAV-6-cfxqr-10" edge="1">
          <mxGeometry relative="1" as="geometry">
            <mxPoint x="700" y="525" as="targetPoint" />
          </mxGeometry>
        </mxCell>
        <mxCell id="Ies4CJbf-FAV-6-cfxqr-2" value="访问api" style="whiteSpace=wrap;html=1;" parent="1" vertex="1">
          <mxGeometry x="640" y="395" width="120" height="60" as="geometry" />
        </mxCell>
        <mxCell id="Ies4CJbf-FAV-6-cfxqr-6" value="API Permission TYPE&lt;br&gt;&lt;div style=&quot;background-color: rgb(255, 255, 255); color: rgb(8, 8, 8); font-size: 9.8pt;&quot;&gt;&lt;div&gt;CONDITION 条件(根据freemark判断)&lt;/div&gt;&lt;div&gt;&lt;div style=&quot;font-size: 9.8pt;&quot;&gt;&lt;div&gt;PERMISSION 权限(token的permission)&lt;/div&gt;&lt;div&gt;&lt;div style=&quot;font-size: 9.8pt;&quot;&gt;&lt;div&gt;MAPPING 映射(flexTypeField关联tokenField)&lt;/div&gt;&lt;div&gt;&lt;br&gt;&lt;/div&gt;&lt;/div&gt;&lt;/div&gt;&lt;/div&gt;&lt;/div&gt;&lt;/div&gt;" style="rounded=1;whiteSpace=wrap;html=1;fontFamily=Verdana;" parent="1" vertex="1">
          <mxGeometry x="60" y="285" width="390" height="140" as="geometry" />
        </mxCell>
        <mxCell id="Ies4CJbf-FAV-6-cfxqr-9" value="条件类型新增 多选项&amp;nbsp; &amp;nbsp; 前置 , 后置" style="rounded=1;whiteSpace=wrap;html=1;fontSize=16;" parent="1" vertex="1">
          <mxGeometry x="60" y="205" width="390" height="60" as="geometry" />
        </mxCell>
        <mxCell id="Ies4CJbf-FAV-6-cfxqr-10" value="&lt;br&gt;执行 后置condition&lt;br&gt;" style="whiteSpace=wrap;html=1;" parent="1" vertex="1">
          <mxGeometry x="605" y="515" width="190" height="110" as="geometry" />
        </mxCell>
        <mxCell id="Ies4CJbf-FAV-6-cfxqr-11" value="apiproduct类型服务api会继承权限&lt;br&gt;" style="rounded=0;whiteSpace=wrap;html=1;fontSize=16;" parent="1" vertex="1">
          <mxGeometry x="880" y="135" width="140" height="60" as="geometry" />
        </mxCell>
      </root>
    </mxGraphModel>
  </diagram>
  <diagram name="流程" id="q9HnboHqc2JEt_-naUdE">
    <mxGraphModel dx="3995" dy="1841" grid="0" gridSize="10" guides="1" tooltips="1" connect="1" arrows="1" fold="1" page="1" pageScale="1" pageWidth="1169" pageHeight="827" math="0" shadow="0">
      <root>
        <mxCell id="0" />
        <mxCell id="1" parent="0" />
        <mxCell id="_8M5s9jNWxeY9qWyxaXj-8" value="&lt;div style=&quot;background-color: rgb(255, 255, 255); color: rgb(8, 8, 8); font-family: &amp;quot;Courier New&amp;quot;, monospace; font-size: 9.8pt;&quot;&gt;流程域&lt;br&gt;--&lt;br&gt;流程域编码&lt;span style=&quot;font-family:&#39;JetBrains Mono&#39;,monospace;&quot;&gt;/ID&lt;br&gt;&lt;/span&gt;流程域名称&lt;span style=&quot;font-family:&#39;JetBrains Mono&#39;,monospace;&quot;&gt;/Name&lt;br&gt;&lt;/span&gt;流程域所属类别&lt;span style=&quot;font-family:&#39;JetBrains Mono&#39;,monospace;&quot;&gt;/Category&lt;br&gt;&lt;/span&gt;流程域责任人&lt;span style=&quot;font-family:&#39;JetBrains Mono&#39;,monospace;&quot;&gt;/Owner&lt;br&gt;&lt;/span&gt;&lt;/div&gt;" style="whiteSpace=wrap;html=1;aspect=fixed;fontSize=16;" vertex="1" parent="1">
          <mxGeometry x="-2297" y="-798" width="185" height="185" as="geometry" />
        </mxCell>
        <mxCell id="_8M5s9jNWxeY9qWyxaXj-9" value="&lt;div style=&quot;background-color: rgb(255, 255, 255); color: rgb(8, 8, 8); font-family: &amp;quot;Courier New&amp;quot;, monospace; font-size: 9.8pt;&quot;&gt;流程组&lt;br&gt;--&lt;br&gt;流程组编码&lt;span style=&quot;font-family:&#39;JetBrains Mono&#39;,monospace;&quot;&gt;/ID&lt;br&gt;&lt;/span&gt;流程组名称&lt;span style=&quot;font-family:&#39;JetBrains Mono&#39;,monospace;&quot;&gt;/Name&lt;br&gt;&lt;/span&gt;流程组所属域&lt;span style=&quot;font-family:&#39;JetBrains Mono&#39;,monospace;&quot;&gt;/ProcessAreaId&lt;/span&gt;&lt;/div&gt;" style="rounded=0;whiteSpace=wrap;html=1;fontSize=16;" vertex="1" parent="1">
          <mxGeometry x="-2058" y="-802" width="230" height="159" as="geometry" />
        </mxCell>
        <mxCell id="_8M5s9jNWxeY9qWyxaXj-10" value="&lt;div style=&quot;background-color: rgb(255, 255, 255); color: rgb(8, 8, 8); font-family: &amp;quot;Courier New&amp;quot;, monospace; font-size: 9.8pt;&quot;&gt;流程&lt;br&gt;--&lt;br&gt;流程编码&lt;span style=&quot;font-family:&#39;JetBrains Mono&#39;,monospace;&quot;&gt;/ID&lt;br&gt;&lt;/span&gt;流程版本&lt;span style=&quot;font-family:&#39;JetBrains Mono&#39;,monospace;&quot;&gt;/VID&lt;br&gt;&lt;/span&gt;流程名称&lt;span style=&quot;font-family:&#39;JetBrains Mono&#39;,monospace;&quot;&gt;/Name&lt;br&gt;&lt;/span&gt;所属流程组&lt;span style=&quot;font-family:&#39;JetBrains Mono&#39;,monospace;&quot;&gt;/ProcessGroupID&lt;br&gt;&lt;/span&gt;流程责任人&lt;span style=&quot;font-family:&#39;JetBrains Mono&#39;,monospace;&quot;&gt;/Owner&lt;br&gt;&lt;/span&gt;流程所属部门&lt;span style=&quot;font-family:&#39;JetBrains Mono&#39;,monospace;&quot;&gt;/Department&lt;br&gt;&lt;/span&gt;流程生效日期&lt;span style=&quot;font-family:&#39;JetBrains Mono&#39;,monospace;&quot;&gt;/EffectiveFrom&lt;br&gt;&lt;/span&gt;流程目的&lt;span style=&quot;font-family:&#39;JetBrains Mono&#39;,monospace;&quot;&gt;/ProcessValue&lt;br&gt;&lt;/span&gt;适用范围&lt;span style=&quot;font-family:&#39;JetBrains Mono&#39;,monospace;&quot;&gt;/ProcessScope&lt;br&gt;&lt;/span&gt;流程场景&lt;span style=&quot;font-family:&#39;JetBrains Mono&#39;,monospace;&quot;&gt;/ProcessScenario&lt;br&gt;&lt;/span&gt;业务对象&lt;span style=&quot;font-family:&#39;JetBrains Mono&#39;,monospace;&quot;&gt;/BusinessObject&lt;br&gt;&lt;/span&gt;流程文件&lt;span style=&quot;font-family:&#39;JetBrains Mono&#39;,monospace;&quot;&gt;/ProcessFile&lt;br&gt;&lt;/span&gt;服务水平承诺&lt;span style=&quot;font-family:&#39;JetBrains Mono&#39;,monospace;&quot;&gt;/SLA&lt;/span&gt;&lt;/div&gt;" style="rounded=0;whiteSpace=wrap;html=1;fontSize=16;" vertex="1" parent="1">
          <mxGeometry x="-2297" y="-541" width="367" height="321" as="geometry" />
        </mxCell>
        <mxCell id="_8M5s9jNWxeY9qWyxaXj-11" value="&lt;div style=&quot;background-color: rgb(255, 255, 255); color: rgb(8, 8, 8); font-family: &amp;quot;Courier New&amp;quot;, monospace; font-size: 9.8pt;&quot;&gt;端到端流程模型&lt;br&gt;--&lt;br&gt;流程编码&lt;span style=&quot;font-family:&#39;JetBrains Mono&#39;,monospace;&quot;&gt;/ID&lt;br&gt;&lt;/span&gt;流程版本&lt;span style=&quot;font-family:&#39;JetBrains Mono&#39;,monospace;&quot;&gt;/VID&lt;br&gt;&lt;/span&gt;流程名称&lt;span style=&quot;font-family:&#39;JetBrains Mono&#39;,monospace;&quot;&gt;/Name&lt;br&gt;&lt;/span&gt;女级流程&lt;span style=&quot;font-family:&#39;JetBrains Mono&#39;,monospace;&quot;&gt;ID/ParentProcessID&lt;br&gt;&lt;/span&gt;流程责任人&lt;span style=&quot;font-family:&#39;JetBrains Mono&#39;,monospace;&quot;&gt;/Owner&lt;br&gt;&lt;/span&gt;流程所属横向组织&lt;span style=&quot;font-family:&#39;JetBrains Mono&#39;,monospace;&quot;&gt;/HorizontalOrganization&lt;br&gt;&lt;/span&gt;流程生效日期&lt;span style=&quot;font-family:&#39;JetBrains Mono&#39;,monospace;&quot;&gt;/EffectiveFrom&lt;br&gt;&lt;/span&gt;流程目的&lt;span style=&quot;font-family:&#39;JetBrains Mono&#39;,monospace;&quot;&gt;/ProcessValue&lt;br&gt;&lt;/span&gt;流程文件&lt;span style=&quot;font-family:&#39;JetBrains Mono&#39;,monospace;&quot;&gt;/ProcessFile&lt;br&gt;&lt;/span&gt;职能流程串&lt;span style=&quot;font-family:&#39;JetBrains Mono&#39;,monospace;&quot;&gt;/ChildProcessesChain&lt;br&gt;&lt;/span&gt;服务水平承诺&lt;span style=&quot;font-family:&#39;JetBrains Mono&#39;,monospace;&quot;&gt;/SLA&lt;/span&gt;&lt;/div&gt;" style="rounded=0;whiteSpace=wrap;html=1;fontSize=16;" vertex="1" parent="1">
          <mxGeometry x="-1873" y="-586" width="375" height="268" as="geometry" />
        </mxCell>
      </root>
    </mxGraphModel>
  </diagram>
</mxfile>
